# Blender v2.82 (sub 7) OBJ File: 'tunnelExtraSimple.blend'
# www.blender.org
mtllib tunnelExtraSimple.mtl.mtl
o Cylinder
v 5.479326 -5.856219 12.868110
v 5.479326 -5.856219 -13.131890
v 6.079990 -4.732455 12.868110
v 6.079990 -4.732455 -13.131890
v 6.449877 -3.513101 12.868110
v 6.449877 -3.513100 -13.131890
v 6.574773 -2.245013 12.868110
v 6.574773 -2.245013 -13.131890
v 6.449878 -0.976927 12.868110
v 6.449878 -0.976926 -13.131890
v 6.079990 0.242428 12.868110
v 6.079990 0.242429 -13.131890
v 5.479326 1.366193 12.868110
v 5.479326 1.366194 -13.131890
v 4.670967 2.351181 12.868110
v 4.670967 2.351182 -13.131890
v 3.685979 3.159540 12.868110
v 3.685979 3.159540 -13.131890
v 2.562214 3.760205 12.868110
v 2.562214 3.760205 -13.131890
v 1.342859 4.130092 12.868110
v 1.342859 4.130092 -13.131890
v 0.074771 4.254987 12.868110
v 0.074771 4.254987 -13.131890
v -1.193317 4.130091 12.868110
v -1.193317 4.130091 -13.131890
v -2.412672 3.760202 12.868110
v -2.412672 3.760203 -13.131890
v -3.536437 3.159538 12.868110
v -3.536437 3.159538 -13.131890
v -4.521424 2.351178 12.868110
v -4.521424 2.351179 -13.131890
v -5.329782 1.366190 12.868110
v -5.329782 1.366190 -13.131890
v -5.930446 0.242425 12.868110
v -5.930446 0.242425 -13.131890
v -6.300332 -0.976931 12.868110
v -6.300332 -0.976931 -13.131890
v -6.425227 -2.245019 12.868110
v -6.425227 -2.245018 -13.131890
v -6.300330 -3.513107 12.868110
v -6.300330 -3.513106 -13.131890
v -5.930441 -4.732461 12.868110
v -5.930441 -4.732461 -13.131890
v -5.329775 -5.856226 12.868110
v -5.329775 -5.856226 -13.131890
vt 0.843750 1.000000
vt 0.812500 0.500000
vt 0.843750 0.500000
vt 0.812500 1.000000
vt 0.781250 0.500000
vt 0.781250 1.000000
vt 0.750000 0.500000
vt 0.750000 1.000000
vt 0.718750 0.500000
vt 0.718750 1.000000
vt 0.687500 0.500000
vt 0.687500 1.000000
vt 0.656250 0.500000
vt 0.656250 1.000000
vt 0.625000 0.500000
vt 0.625000 1.000000
vt 0.593750 0.500000
vt 0.593750 1.000000
vt 0.562500 0.500000
vt 0.562500 1.000000
vt 0.531250 0.500000
vt 0.531250 1.000000
vt 0.500000 0.500000
vt 0.500000 1.000000
vt 0.468750 0.500000
vt 0.468750 1.000000
vt 0.437500 0.500000
vt 0.437500 1.000000
vt 0.406250 0.500000
vt 0.406250 1.000000
vt 0.375000 0.500000
vt 0.375000 1.000000
vt 0.343750 0.500000
vt 0.343750 1.000000
vt 0.312500 0.500000
vt 0.312500 1.000000
vt 0.281250 0.500000
vt 0.281250 1.000000
vt 0.250000 0.500000
vt 0.250000 1.000000
vt 0.218750 0.500000
vt 0.218750 1.000000
vt 0.187500 0.500000
vt 0.187500 1.000000
vt 0.156250 0.500000
vt 0.156250 1.000000
vn 0.8819 -0.4714 0.0000
vn 0.9569 -0.2903 0.0000
vn 0.9952 -0.0980 0.0000
vn 0.9952 0.0980 0.0000
vn 0.9569 0.2903 0.0000
vn 0.8819 0.4714 0.0000
vn 0.7730 0.6344 0.0000
vn 0.6344 0.7730 0.0000
vn 0.4714 0.8819 0.0000
vn 0.2903 0.9569 0.0000
vn 0.0980 0.9952 0.0000
vn -0.0980 0.9952 0.0000
vn -0.2903 0.9569 0.0000
vn -0.4714 0.8819 0.0000
vn -0.6344 0.7730 0.0000
vn -0.7730 0.6344 0.0000
vn -0.8819 0.4714 0.0000
vn -0.9569 0.2903 0.0000
vn -0.9952 0.0980 0.0000
vn -0.9952 -0.0980 -0.0000
vn -0.9569 -0.2903 -0.0000
vn -0.8819 -0.4714 0.0000
usemtl None
s off
f 2/1/1 3/2/1 1/3/1
f 4/4/2 5/5/2 3/2/2
f 6/6/3 7/7/3 5/5/3
f 8/8/4 9/9/4 7/7/4
f 10/10/5 11/11/5 9/9/5
f 12/12/6 13/13/6 11/11/6
f 14/14/7 15/15/7 13/13/7
f 16/16/8 17/17/8 15/15/8
f 18/18/9 19/19/9 17/17/9
f 20/20/10 21/21/10 19/19/10
f 22/22/11 23/23/11 21/21/11
f 24/24/12 25/25/12 23/23/12
f 26/26/13 27/27/13 25/25/13
f 28/28/14 29/29/14 27/27/14
f 30/30/15 31/31/15 29/29/15
f 32/32/16 33/33/16 31/31/16
f 34/34/17 35/35/17 33/33/17
f 36/36/18 37/37/18 35/35/18
f 38/38/19 39/39/19 37/37/19
f 40/40/20 41/41/20 39/39/20
f 42/42/21 43/43/21 41/41/21
f 44/44/22 45/45/22 43/43/22
f 2/1/1 4/4/1 3/2/1
f 4/4/2 6/6/2 5/5/2
f 6/6/3 8/8/3 7/7/3
f 8/8/4 10/10/4 9/9/4
f 10/10/5 12/12/5 11/11/5
f 12/12/6 14/14/6 13/13/6
f 14/14/7 16/16/7 15/15/7
f 16/16/8 18/18/8 17/17/8
f 18/18/9 20/20/9 19/19/9
f 20/20/10 22/22/10 21/21/10
f 22/22/11 24/24/11 23/23/11
f 24/24/12 26/26/12 25/25/12
f 26/26/13 28/28/13 27/27/13
f 28/28/14 30/30/14 29/29/14
f 30/30/15 32/32/15 31/31/15
f 32/32/16 34/34/16 33/33/16
f 34/34/17 36/36/17 35/35/17
f 36/36/18 38/38/18 37/37/18
f 38/38/19 40/40/19 39/39/19
f 40/40/20 42/42/20 41/41/20
f 42/42/21 44/44/21 43/43/21
f 44/44/22 46/46/22 45/45/22
